<svg width="23" height="20" viewBox="0 0 23 20" fill="none" xmlns="http://www.w3.org/2000/svg">
<path d="M18.3988 8.125C18.3988 9.91797 17.7724 11.5742 16.7171 12.918L22.0399 17.8672C22.5654 18.3555 22.5654 19.1484 22.0399 19.6367C21.5143 20.125 20.6608 20.125 20.1353 19.6367L14.8125 14.6875C13.3661 15.6719 11.5835 16.25 9.65362 16.25C4.82272 16.25 0.908386 12.6133 0.908386 8.125C0.908386 3.63672 4.82272 0 9.65362 0C14.4845 0 18.3988 3.63672 18.3988 8.125ZM9.65362 13.75C10.4487 13.75 11.236 13.6045 11.9705 13.3218C12.7051 13.0391 13.3725 12.6248 13.9347 12.1025C14.4969 11.5801 14.9429 10.9601 15.2471 10.2776C15.5514 9.59514 15.708 8.86369 15.708 8.125C15.708 7.38631 15.5514 6.65486 15.2471 5.97241C14.9429 5.28995 14.4969 4.66985 13.9347 4.14752C13.3725 3.62519 12.7051 3.21086 11.9705 2.92818C11.236 2.6455 10.4487 2.5 9.65362 2.5C8.85854 2.5 8.07125 2.6455 7.3367 2.92818C6.60215 3.21086 5.93472 3.62519 5.37252 4.14752C4.81031 4.66985 4.36435 5.28995 4.06009 5.97241C3.75583 6.65486 3.59923 7.38631 3.59923 8.125C3.59923 8.86369 3.75583 9.59514 4.06009 10.2776C4.36435 10.9601 4.81031 11.5801 5.37252 12.1025C5.93472 12.6248 6.60215 13.0391 7.3367 13.3218C8.07125 13.6045 8.85854 13.75 9.65362 13.75Z" fill="#E6E6E6"/>
</svg>
