<svg width="31" height="31" viewBox="0 0 31 31" fill="none" xmlns="http://www.w3.org/2000/svg">
<g filter="url(#filter0_d_470_3)">
<path d="M25.3785 8.58637C26.1984 7.76644 26.1984 6.43487 25.3785 5.61495C24.5586 4.79502 23.227 4.79502 22.4071 5.61495L15.5 12.5286L8.58637 5.62151C7.76644 4.80158 6.43487 4.80158 5.61495 5.62151C4.79502 6.44143 4.79502 7.773 5.61495 8.59292L12.5286 15.5L5.62151 22.4136C4.80158 23.2336 4.80158 24.5651 5.62151 25.3851C6.44143 26.205 7.773 26.205 8.59292 25.3851L15.5 18.4714L22.4136 25.3785C23.2336 26.1984 24.5651 26.1984 25.3851 25.3785C26.205 24.5586 26.205 23.227 25.3851 22.4071L18.4714 15.5L25.3785 8.58637Z" fill="#FFBE00"/>
</g>
<defs>
<filter id="filter0_d_470_3" x="0.7" y="0.7" width="29.6" height="29.6" filterUnits="userSpaceOnUse" color-interpolation-filters="sRGB">
<feFlood flood-opacity="0" result="BackgroundImageFix"/>
<feColorMatrix in="SourceAlpha" type="matrix" values="0 0 0 0 0 0 0 0 0 0 0 0 0 0 0 0 0 0 127 0" result="hardAlpha"/>
<feOffset/>
<feGaussianBlur stdDeviation="2.15"/>
<feComposite in2="hardAlpha" operator="out"/>
<feColorMatrix type="matrix" values="0 0 0 0 1 0 0 0 0 0.745098 0 0 0 0 0 0 0 0 0.25 0"/>
<feBlend mode="normal" in2="BackgroundImageFix" result="effect1_dropShadow_470_3"/>
<feBlend mode="normal" in="SourceGraphic" in2="effect1_dropShadow_470_3" result="shape"/>
</filter>
</defs>
</svg>
