<svg width="21" height="21" viewBox="0 0 21 21" fill="none" xmlns="http://www.w3.org/2000/svg">
<path d="M20.3785 3.58637C21.1984 2.76644 21.1984 1.43487 20.3785 0.614946C19.5586 -0.204982 18.227 -0.204982 17.4071 0.614946L10.5 7.52858L3.58637 0.621505C2.76644 -0.198423 1.43487 -0.198423 0.614946 0.621505C-0.204982 1.44143 -0.204982 2.773 0.614946 3.59292L7.52858 10.5L0.621506 17.4136C-0.198422 18.2336 -0.198422 19.5651 0.621506 20.3851C1.44143 21.205 2.773 21.205 3.59292 20.3851L10.5 13.4714L17.4136 20.3785C18.2336 21.1984 19.5651 21.1984 20.3851 20.3785C21.205 19.5586 21.205 18.227 20.3851 17.4071L13.4714 10.5L20.3785 3.58637Z" fill="#E6E6E6"/>
</svg>
