<svg width="165" height="165" viewBox="0 0 165 165" fill="none" xmlns="http://www.w3.org/2000/svg">
<path d="M164.305 19.25V145.04C164.195 145.27 164.035 145.49 163.995 145.74C162.045 156.59 152.895 164.29 141.905 164.29C102.015 164.29 62.1254 164.29 22.2354 164.29C10.0054 164.29 0.0154321 154.29 0.0154321 142.06C0.0154321 102.12 -0.0345679 62.17 0.0454321 22.23C0.0654321 13.34 4.30543 6.72 12.1054 2.55C14.3154 1.38 16.8654 0.83 19.2554 0C61.1854 0 103.115 0 145.045 0C145.275 0.11 145.505 0.26 145.745 0.31C154.765 2.15 160.645 7.49 163.455 16.23C163.775 17.23 164.015 18.25 164.295 19.26L164.305 19.25ZM87.4354 73.27C87.4354 71.31 87.4654 69.78 87.4354 68.26C87.3654 65.83 86.2854 64.78 83.8454 64.78C79.1454 64.77 74.4354 64.78 69.7354 64.78C66.8954 64.78 65.8054 65.88 65.8054 68.78C65.8054 88.99 65.8054 109.2 65.8054 129.41C65.8054 132.32 66.9854 133.49 69.8954 133.5C74.2754 133.5 78.6654 133.5 83.0454 133.5C86.3754 133.5 87.3754 132.52 87.3754 129.24C87.3754 118.81 87.3254 108.39 87.4054 97.96C87.4354 94.12 88.3054 90.44 90.4454 87.17C92.8754 83.46 96.3954 81.96 100.745 82.31C105.345 82.68 108.565 85.08 109.705 89.51C110.535 92.72 110.915 96.12 110.965 99.45C111.115 109.5 111.005 119.55 111.015 129.6C111.015 132.27 112.135 133.43 114.785 133.44C119.655 133.46 124.515 133.47 129.385 133.44C131.965 133.43 133.185 132.17 133.185 129.55C133.185 118.32 133.195 107.1 133.095 95.87C133.045 90.74 132.665 85.63 131.255 80.65C128.795 71.99 123.595 66.07 114.475 64.31C109.335 63.32 104.175 63.43 99.0754 64.78C94.7954 65.92 91.3354 68.28 88.6254 71.77C88.3354 72.14 88.0454 72.51 87.4454 73.26L87.4354 73.27ZM55.9354 99.15C55.9354 89.05 55.9354 78.95 55.9354 68.85C55.9354 65.89 54.8154 64.76 51.8854 64.76C47.4454 64.75 43.0154 64.75 38.5754 64.76C35.5154 64.76 34.3354 65.96 34.3354 69.05C34.3354 89.09 34.3354 109.13 34.3354 129.17C34.3354 132.17 35.6354 133.49 38.5954 133.5C42.8754 133.51 47.1454 133.5 51.4254 133.5C54.7954 133.5 55.9254 132.36 55.9354 128.98C55.9354 119.04 55.9354 109.1 55.9354 99.16V99.15ZM59.0854 44.85C59.1154 37.13 52.8854 30.83 45.2054 30.81C37.5754 30.79 31.2154 37.12 31.1654 44.76C31.1154 52.33 37.4054 58.71 44.9554 58.74C52.8454 58.78 59.0554 52.67 59.0854 44.85Z" fill="#E6E6E6"/>
</svg>
