<svg width="165" height="165" viewBox="0 0 165 165" fill="none" xmlns="http://www.w3.org/2000/svg">
<path d="M163.459 16.23C160.649 7.48998 154.769 2.16 145.749 0.309998C145.509 0.259998 145.279 0.11 145.049 0H19.2589C16.8689 0.83 14.3088 1.38 12.1088 2.56C4.29885 6.73 0.0588524 13.36 0.0488524 22.24C-0.0311476 62.18 0.00884975 102.13 0.0188498 142.07C0.0188498 154.3 10.0088 164.29 22.2388 164.3C62.1288 164.31 102.019 164.3 141.909 164.3C152.899 164.3 162.049 156.6 163.999 145.75C164.039 145.51 164.199 145.28 164.309 145.05V19.26C164.029 18.25 163.789 17.23 163.469 16.23H163.459ZM115.639 111.04C115.539 118.22 110.499 123.97 103.399 125.09C103.269 125.11 103.139 125.19 103.019 125.24H51.6889C51.5589 125.19 51.4388 125.11 51.3088 125.09C45.4388 124.05 41.5789 120.66 39.6589 115.04C39.3889 114.26 39.2588 113.43 39.0588 112.62V61.29C39.2788 60.4 39.4588 59.49 39.7388 58.62C41.5788 52.8 46.9289 48.74 53.0189 48.68C59.4989 48.61 65.9789 48.64 72.4489 48.66C75.3089 48.67 77.4488 50.82 77.3988 53.5C77.3488 56.2 75.1788 58.25 72.3288 58.25C66.1288 58.25 59.9288 58.25 53.7388 58.25C50.6388 58.25 48.6488 60.25 48.6488 63.35C48.6488 79.08 48.6488 94.82 48.6488 110.55C48.6488 113.64 50.6588 115.65 53.7488 115.65C69.4788 115.65 85.2188 115.65 100.949 115.65C104.049 115.65 106.049 113.66 106.049 110.56C106.049 104.33 106.049 98.11 106.049 91.88C106.049 89.31 107.679 87.41 110.219 86.98C112.849 86.53 115.549 88.67 115.609 91.36C115.679 94.19 115.639 97.02 115.639 99.86C115.639 103.59 115.679 107.32 115.629 111.05L115.639 111.04ZM120.409 77.4C117.769 77.37 115.649 75.22 115.649 72.53C115.639 66.92 115.649 61.31 115.649 55.5C115.309 55.82 115.079 56.03 114.859 56.24C102.009 69.09 89.1588 81.94 76.3088 94.8C75.1288 95.98 73.7988 96.66 72.1088 96.49C70.1688 96.29 68.8088 95.25 68.1088 93.47C67.4188 91.72 67.7289 90.06 68.9389 88.59C69.1689 88.31 69.4389 88.06 69.6989 87.8C82.4689 75.03 95.2388 62.26 108.009 49.49C108.239 49.26 108.449 49.02 108.799 48.66H107.739C102.439 48.66 97.1388 48.66 91.8388 48.66C89.1988 48.66 87.2188 46.86 86.9188 44.22C86.6588 41.96 88.3388 39.72 90.7188 39.17C91.0688 39.09 91.4389 39.08 91.7989 39.08C101.339 39.08 110.869 39.08 120.409 39.08C123.179 39.08 125.239 41.15 125.239 43.92C125.239 53.46 125.239 62.99 125.239 72.53C125.239 75.27 123.079 77.45 120.419 77.42L120.409 77.4Z" fill="#E6E6E6"/>
</svg>
