<svg width="52" height="60" viewBox="0 0 52 60" fill="none" xmlns="http://www.w3.org/2000/svg">
<g filter="url(#filter0_d_598_196)">
<path d="M10.6 4C6.95625 4 4 6.91146 4 10.5V49.5C4 53.0885 6.95625 56 10.6 56H15C18.6438 56 21.6 53.0885 21.6 49.5V10.5C21.6 6.91146 18.6438 4 15 4H10.6ZM37 4C33.3563 4 30.4 6.91146 30.4 10.5V49.5C30.4 53.0885 33.3563 56 37 56H41.4C45.0438 56 48 53.0885 48 49.5V10.5C48 6.91146 45.0438 4 41.4 4H37Z" fill="#FFBE00"/>
</g>
<defs>
<filter id="filter0_d_598_196" x="0" y="0" width="52" height="60" filterUnits="userSpaceOnUse" color-interpolation-filters="sRGB">
<feFlood flood-opacity="0" result="BackgroundImageFix"/>
<feColorMatrix in="SourceAlpha" type="matrix" values="0 0 0 0 0 0 0 0 0 0 0 0 0 0 0 0 0 0 127 0" result="hardAlpha"/>
<feOffset/>
<feGaussianBlur stdDeviation="2"/>
<feComposite in2="hardAlpha" operator="out"/>
<feColorMatrix type="matrix" values="0 0 0 0 1 0 0 0 0 0.745455 0 0 0 0 0 0 0 0 1 0"/>
<feBlend mode="normal" in2="BackgroundImageFix" result="effect1_dropShadow_598_196"/>
<feBlend mode="normal" in="SourceGraphic" in2="effect1_dropShadow_598_196" result="shape"/>
</filter>
</defs>
</svg>
