<svg width="31" height="30" viewBox="0 0 31 30" fill="none" xmlns="http://www.w3.org/2000/svg">
<g filter="url(#filter0_d_447_389)">
<path d="M22.4905 13.125C22.4905 16.0504 22.4564 19.4501 24.5988 21.4421L26.1315 22.8672C26.6571 23.3555 26.6571 24.1484 26.1315 24.6367C25.6059 25.125 24.7524 25.125 24.2269 24.6367L22.911 23.4132C20.5669 21.2336 16.946 21.25 13.7452 21.25C8.91433 21.25 5 17.6133 5 13.125C5 8.63672 8.91433 5 13.7452 5C18.5761 5 22.4905 8.63672 22.4905 13.125ZM13.7452 18.75C14.5403 18.75 15.3276 18.6045 16.0621 18.3218C16.7967 18.0391 17.4641 17.6248 18.0263 17.1025C18.5885 16.5801 19.0345 15.9601 19.3388 15.2776C19.643 14.5951 19.7996 13.8637 19.7996 13.125C19.7996 12.3863 19.643 11.6549 19.3388 10.9724C19.0345 10.2899 18.5885 9.66985 18.0263 9.14752C17.4641 8.62519 16.7967 8.21086 16.0621 7.92818C15.3276 7.6455 14.5403 7.5 13.7452 7.5C12.9502 7.5 12.1629 7.6455 11.4283 7.92818C10.6938 8.21086 10.0263 8.62519 9.46413 9.14752C8.90193 9.66985 8.45596 10.2899 8.1517 10.9724C7.84744 11.6549 7.69084 12.3863 7.69084 13.125C7.69084 13.8637 7.84744 14.5951 8.1517 15.2776C8.45596 15.9601 8.90193 16.5801 9.46413 17.1025C10.0263 17.6248 10.6938 18.0391 11.4283 18.3218C12.1629 18.6045 12.9502 18.75 13.7452 18.75Z" fill="#FFBE00"/>
</g>
<defs>
<filter id="filter0_d_447_389" x="0.7" y="0.7" width="30.1254" height="28.6029" filterUnits="userSpaceOnUse" color-interpolation-filters="sRGB">
<feFlood flood-opacity="0" result="BackgroundImageFix"/>
<feColorMatrix in="SourceAlpha" type="matrix" values="0 0 0 0 0 0 0 0 0 0 0 0 0 0 0 0 0 0 127 0" result="hardAlpha"/>
<feOffset/>
<feGaussianBlur stdDeviation="2.15"/>
<feComposite in2="hardAlpha" operator="out"/>
<feColorMatrix type="matrix" values="0 0 0 0 1 0 0 0 0 0.745455 0 0 0 0 0 0 0 0 1 0"/>
<feBlend mode="normal" in2="BackgroundImageFix" result="effect1_dropShadow_447_389"/>
<feBlend mode="normal" in="SourceGraphic" in2="effect1_dropShadow_447_389" result="shape"/>
</filter>
</defs>
</svg>
