<svg width="165" height="165" viewBox="0 0 165 165" fill="none" xmlns="http://www.w3.org/2000/svg">
<path d="M69.1988 39.15C60.0488 42.11 52.8488 47.02 46.7588 54.54C52.1588 56.04 57.1688 57.43 62.3088 58.86C63.8288 51.88 65.6588 45.45 69.1988 39.15Z" fill="#E6E6E6"/>
<path d="M94.4788 59.56C94.1888 58.29 93.9888 57.27 93.7288 56.26C92.2988 50.73 90.5788 45.31 87.1188 40.66C83.7688 36.15 80.5688 36.11 77.2288 40.6C73.0888 46.17 71.3388 52.71 69.8088 59.54C78.0688 60.43 86.1688 60.4 94.4888 59.56H94.4788Z" fill="#E6E6E6"/>
<path d="M61.0687 66.28C54.8287 64.48 48.7587 62.72 42.5887 60.94C39.7387 66.23 37.9187 72.03 37.4487 78.31H60.1287C60.4487 74.19 60.7587 70.15 61.0587 66.28H61.0687Z" fill="#E6E6E6"/>
<path d="M60.1387 86H37.4487C37.9587 92.34 39.7487 98.19 42.6187 103.37C48.8887 101.56 54.9687 99.81 61.0787 98.05C60.7787 94.15 60.4587 90.11 60.1487 86H60.1387Z" fill="#E6E6E6"/>
<path d="M95.8189 96.95C96.0889 93.49 96.3889 89.79 96.6789 86.02H67.5989C67.8989 89.81 68.1889 93.48 68.4589 96.95H95.8189Z" fill="#E6E6E6"/>
<path d="M117.289 54.22C111.359 47 104.199 42.0301 95.1089 39.1801C98.6189 45.4401 100.459 51.87 101.909 58.58C107.269 57.61 112.339 56.4101 117.289 54.2101V54.22Z" fill="#E6E6E6"/>
<path d="M95.8089 67.37H68.4689C68.1989 70.8 67.8989 74.47 67.5989 78.29H96.6989C96.3889 74.47 96.0889 70.77 95.8089 67.37Z" fill="#E6E6E6"/>
<path d="M104.149 78.3H126.809C126.359 71.98 123.679 63.42 121.579 60.99C115.399 62.77 109.369 64.51 103.229 66.28C103.519 70.11 103.829 74.15 104.149 78.3Z" fill="#E6E6E6"/>
<path d="M163.459 16.23C160.649 7.49001 154.769 2.16 145.749 0.309998C145.509 0.259998 145.279 0.11 145.049 0H19.2589C16.8689 0.83 14.3089 1.38 12.1089 2.56C4.29885 6.73 0.0588506 13.36 0.0488506 22.24C-0.0311494 62.18 0.00885182 102.13 0.0188518 142.07C0.0188518 154.3 10.0089 164.29 22.2388 164.3C62.1288 164.31 102.019 164.3 141.909 164.3C152.899 164.3 162.049 156.6 163.999 145.75C164.039 145.51 164.199 145.28 164.309 145.05V19.26C164.029 18.25 163.789 17.23 163.469 16.23H163.459ZM82.1488 134.55C53.3389 134.55 29.6289 110.79 29.7489 82.04C29.8689 53.22 53.5089 29.67 82.2188 29.76C111.039 29.85 134.579 53.44 134.539 82.19C134.499 110.98 110.909 134.55 82.1488 134.55Z" fill="#E6E6E6"/>
<path d="M103.219 98.04C109.449 99.84 115.519 101.6 121.639 103.37C124.349 98.95 126.659 91.19 126.739 86H104.149C103.829 90.15 103.509 94.24 103.219 98.04Z" fill="#E6E6E6"/>
<path d="M47.1089 110.08C52.0889 116.8 62.8689 124.08 69.0389 124.86C65.6389 118.84 63.8489 112.35 62.3589 105.73C57.0389 106.74 51.9489 107.86 47.1089 110.08Z" fill="#E6E6E6"/>
<path d="M69.8389 104.77C70.8389 109.69 72.0489 114.38 74.3089 118.68C75.5589 121.05 77.0589 123.37 78.8289 125.37C80.9489 127.75 83.3489 127.74 85.4689 125.37C87.2489 123.38 88.7489 121.06 89.9889 118.68C92.2389 114.37 93.4589 109.69 94.4489 104.77C86.1889 103.9 78.0889 103.9 69.8389 104.77Z" fill="#E6E6E6"/>
<path d="M95.0889 125.15C104.219 122.26 111.399 117.31 117.289 110.08C112.299 107.92 107.249 106.68 101.929 105.75C100.449 112.36 98.6689 118.81 95.0889 125.15Z" fill="#E6E6E6"/>
</svg>
